# xmcd
# 
# Track frame offsets:
#   150
#   12357
#   27557
#   42215
#   56465
#   72812
#   91247
#   106487
#   120500
#   136727
#   151945
#   169200
#   181437
#   196297
# 
# Disc length: 2762 seconds
# 
# Revision: 1
# Processed by: cddbd v1.5.1PL2 Copyright (c) Steve Scherf et al.
# Submitted via: Synapstar 1.0 
# 
DISCID=b40ac80e
DTITLE=Various Artist - SD032 - Country Hits Today
DYEAR=1900
DGENRE=Country
TTITLE0=Alan Jackson - Little Bitty
TTITLE1=Tracy Lawrence - Is That A Tear
TTITLE2=Terri Clark - Poor Poor Pitiful Me
TTITLE3=Bryan White - That's Another Song
TTITLE4=Vince Gill - Pretty Little Adriana
TTITLE5=Faith Hill - I Can't Do That Anymore
TTITLE6=John Berry - Change My Mind
TTITLE7=Clay Walker - Bury The Shovel
TTITLE8=Tracy Byrd - Big Love
TTITLE9=Blackhawk - King Of The World
TTITLE10=Neal McCoy - Going Going Gone
TTITLE11=Gary Allen - Her Man
TTITLE12=Mark Wills - High, Low And In-Between
TTITLE13=Randy Travis - Would I
EXTD=MediaType: Karaoke CD+G Producer: StarDisc
EXTT0=
EXTT1=
EXTT2=
EXTT3=
EXTT4=
EXTT5=
EXTT6=
EXTT7=
EXTT8=
EXTT9=
EXTT10=
EXTT11=
EXTT12=
EXTT13=
PLAYORDER=
